<svg width="25" height="24" viewBox="0 0 25 24" fill="none" xmlns="http://www.w3.org/2000/svg">
<circle cx="12.8333" cy="12" r="12" fill="#F44336" fill-opacity="0.2"/>
<g clip-path="url(#clip0_352_2004)">
<path d="M9.41654 17.0073C9.26727 17.0073 9.1179 16.9501 9.0043 16.8364C8.77624 16.6085 8.77624 16.2399 9.0043 16.012L16.8377 8.17841C17.0657 7.95046 17.4343 7.95046 17.6622 8.17841C17.8903 8.40637 17.8903 8.77494 17.6622 9.00289L9.82878 16.8364C9.71443 16.9507 9.5658 17.0073 9.41654 17.0073Z" fill="#F44336"/>
<path d="M17.25 17.0073C17.1007 17.0073 16.9514 16.9501 16.8377 16.8364L9.0043 9.00289C8.77624 8.77494 8.77624 8.40637 9.0043 8.17841C9.23225 7.95046 9.60072 7.95046 9.82878 8.17841L17.6622 16.012C17.8903 16.2399 17.8903 16.6085 17.6622 16.8364C17.5485 16.9507 17.3992 17.0073 17.25 17.0073Z" fill="#F44336"/>
</g>
<defs>
<clipPath id="clip0_352_2004">
<rect width="9" height="9" fill="white" transform="translate(8.83325 8)"/>
</clipPath>
</defs>
</svg>
