<svg width="25" height="24" viewBox="0 0 25 24" fill="none" xmlns="http://www.w3.org/2000/svg">
<g clip-path="url(#clip0_352_1990)">
<path d="M18.6515 19.3939C17.803 19.8788 16.7121 20.1212 15.4999 20.1212C12.9545 20.1212 11.1363 18.9091 9.92418 16.606H17.6817V13.6969H9.07572C8.95452 13.2121 8.95452 12.7272 8.95452 12.1212C8.95452 11.6364 8.95452 11.1515 8.95452 10.9091H17.6818V8H9.6818C10.2878 6.7879 11.0151 5.81818 12.106 5.09091C13.0757 4.36364 14.2878 4 15.6212 4C16.8333 4 18.0454 4.12119 18.8939 4.60608C19.7424 5.09091 20.7121 5.81818 21.6818 6.90909L24.106 3.87881C21.9242 1.33335 19.1363 0 15.4999 0C13.0757 0 11.0151 0.727273 9.07572 2.30301C7.13634 3.75756 5.80299 5.69693 5.07572 8.12119H1.56055V10.7878H4.46964C4.46964 11.0303 4.46964 11.5151 4.46964 11.9999C4.46964 12.4848 4.46964 13.0909 4.59083 13.5757H1.56055V16.4848H5.3181C6.04538 18.7878 7.37873 20.606 9.19691 21.9393C11.0151 23.2727 13.1969 24 15.4999 24C19.0151 24 21.8029 22.7879 23.8636 20.1212L21.4393 17.2121C20.4696 18.1818 19.4999 18.9091 18.6515 19.3939Z" fill="#151620"/>
</g>
<defs>
<clipPath id="clip0_352_1990">
<rect width="24" height="24" fill="white" transform="translate(0.833252)"/>
</clipPath>
</defs>
</svg>
