<svg width="96" height="96" viewBox="0 0 96 96" fill="none" xmlns="http://www.w3.org/2000/svg">
<g filter="url(#filter0_d_16278_74)">
<rect x="16" width="64" height="64" rx="16" fill="#4AC0FF"/>
<path d="M48 35.2051C47.9266 35.205 47.854 35.1888 47.7875 35.1576L32.2875 27.8651C32.2016 27.8247 32.129 27.7607 32.0781 27.6806C32.0273 27.6004 32.0002 27.5075 32.0002 27.4126C32.0002 27.3177 32.0273 27.2247 32.0781 27.1446C32.129 27.0645 32.2016 27.0005 32.2875 26.9601L47.7875 19.6651C47.854 19.6339 47.9266 19.6177 48 19.6177C48.0735 19.6177 48.146 19.6339 48.2125 19.6651L63.7125 26.9601C63.7984 27.0005 63.8711 27.0645 63.9219 27.1446C63.9728 27.2247 63.9998 27.3177 63.9998 27.4126C63.9998 27.5075 63.9728 27.6004 63.9219 27.6806C63.8711 27.7607 63.7984 27.8247 63.7125 27.8651L48.2125 35.1576C48.1461 35.1888 48.0735 35.205 48 35.2051ZM33.675 27.4126L48 34.1626L62.325 27.4126L48 20.6701L33.675 27.4126Z" fill="white"/>
<path d="M38 36C37.8674 36 37.7402 35.9473 37.6464 35.8536C37.5527 35.7598 37.5 35.6326 37.5 35.5V30.25C37.5 30.1174 37.5527 29.9902 37.6464 29.8964C37.7402 29.8027 37.8674 29.75 38 29.75C38.1326 29.75 38.2598 29.8027 38.3536 29.8964C38.4473 29.9902 38.5 30.1174 38.5 30.25V35.5C38.5 35.6326 38.4473 35.7598 38.3536 35.8536C38.2598 35.9473 38.1326 36 38 36Z" fill="white"/>
<path d="M58 36C57.8674 36 57.7402 35.9473 57.6464 35.8536C57.5527 35.7598 57.5 35.6326 57.5 35.5V30.25C57.5 30.1174 57.5527 29.9902 57.6464 29.8964C57.7402 29.8027 57.8674 29.75 58 29.75C58.1326 29.75 58.2598 29.8027 58.3536 29.8964C58.4473 29.9902 58.5 30.1174 58.5 30.25V35.5C58.5 35.6326 58.4473 35.7598 58.3536 35.8536C58.2598 35.9473 58.1326 36 58 36Z" fill="white"/>
<path d="M48 41.1325C42.345 41.1325 37.5 38.035 37.5 35.5C37.5 35.3674 37.5527 35.2402 37.6464 35.1464C37.7402 35.0527 37.8674 35 38 35C38.1326 35 38.2598 35.0527 38.3536 35.1464C38.4473 35.2402 38.5 35.3674 38.5 35.5C38.5 37.085 42.5 40.1325 48 40.1325C53.5 40.1325 57.5 37.085 57.5 35.5C57.5 35.3674 57.5527 35.2402 57.6464 35.1464C57.7402 35.0527 57.8674 35 58 35C58.1326 35 58.2598 35.0527 58.3536 35.1464C58.4473 35.2402 58.5 35.3674 58.5 35.5C58.5 38.035 53.655 41.1325 48 41.1325Z" fill="white"/>
<path d="M55.5 41.25C55.3674 41.25 55.2402 41.1973 55.1465 41.1036C55.0527 41.0098 55 40.8826 55 40.75V31.31L47.7775 27.6975C47.7167 27.6696 47.662 27.6297 47.6169 27.5802C47.5718 27.5308 47.537 27.4728 47.5147 27.4096C47.4924 27.3465 47.4831 27.2795 47.4871 27.2127C47.4912 27.1458 47.5087 27.0805 47.5385 27.0206C47.5683 26.9606 47.6099 26.9072 47.6607 26.8637C47.7115 26.8201 47.7706 26.7871 47.8344 26.7668C47.8982 26.7464 47.9654 26.7391 48.0321 26.7453C48.0987 26.7514 48.1635 26.7709 48.2225 26.8025L55.7225 30.5525C55.8058 30.5939 55.8759 30.6577 55.9249 30.7368C55.974 30.8158 56 30.907 56 31V40.75C56 40.8826 55.9473 41.0098 55.8536 41.1036C55.7598 41.1973 55.6326 41.25 55.5 41.25Z" fill="white"/>
<path d="M55.5 43.5C55.2033 43.5 54.9133 43.412 54.6666 43.2472C54.42 43.0824 54.2277 42.8481 54.1142 42.574C54.0007 42.2999 53.9709 41.9983 54.0288 41.7074C54.0867 41.4164 54.2296 41.1491 54.4393 40.9393C54.6491 40.7296 54.9164 40.5867 55.2074 40.5288C55.4983 40.4709 55.7999 40.5007 56.074 40.6142C56.3481 40.7277 56.5824 40.92 56.7472 41.1666C56.912 41.4133 57 41.7033 57 42C57 42.3978 56.842 42.7794 56.5607 43.0607C56.2794 43.342 55.8978 43.5 55.5 43.5ZM55.5 41.5C55.4011 41.5 55.3044 41.5293 55.2222 41.5843C55.14 41.6392 55.0759 41.7173 55.0381 41.8087C55.0002 41.9 54.9903 42.0006 55.0096 42.0975C55.0289 42.1945 55.0765 42.2836 55.1464 42.3536C55.2164 42.4235 55.3055 42.4711 55.4025 42.4904C55.4994 42.5097 55.6 42.4998 55.6913 42.4619C55.7827 42.4241 55.8608 42.36 55.9157 42.2778C55.9707 42.1956 56 42.0989 56 42C56 41.8674 55.9473 41.7402 55.8536 41.6464C55.7598 41.5527 55.6326 41.5 55.5 41.5Z" fill="white"/>
<path d="M56.25 46.4999H54.75C54.6806 46.5002 54.6119 46.486 54.5483 46.4582C54.4847 46.4305 54.4275 46.3898 54.3805 46.3388C54.3335 46.2878 54.2976 46.2275 54.2751 46.1618C54.2526 46.0962 54.2441 46.0266 54.25 45.9574L54.5 42.9574C54.505 42.8248 54.5624 42.6996 54.6597 42.6094C54.757 42.5191 54.8861 42.4712 55.0187 42.4762C55.1513 42.4812 55.2765 42.5386 55.3668 42.6359C55.457 42.7332 55.505 42.8623 55.5 42.9949C55.495 42.8623 55.5429 42.7332 55.6332 42.6359C55.7234 42.5386 55.8486 42.4812 55.9812 42.4762C56.1138 42.4712 56.243 42.5191 56.3403 42.6094C56.4376 42.6996 56.495 42.8248 56.5 42.9574L56.75 45.9574C56.7559 46.0266 56.7473 46.0962 56.7248 46.1618C56.7024 46.2275 56.6665 46.2878 56.6194 46.3388C56.5724 46.3898 56.5153 46.4305 56.4517 46.4582C56.3881 46.486 56.3194 46.5002 56.25 46.4999ZM55.2925 45.4999H55.7075L55.5 43.0424C55.4987 43.03 55.4987 43.0174 55.5 43.0049C55.5012 43.0174 55.5012 43.03 55.5 43.0424L55.2925 45.4999Z" fill="white"/>
<rect x="17" y="1" width="62" height="62" rx="15" stroke="#4AC0FF" stroke-width="2"/>
</g>
<defs>
<filter id="filter0_d_16278_74" x="0" y="0" width="96" height="96" filterUnits="userSpaceOnUse" color-interpolation-filters="sRGB">
<feFlood flood-opacity="0" result="BackgroundImageFix"/>
<feColorMatrix in="SourceAlpha" type="matrix" values="0 0 0 0 0 0 0 0 0 0 0 0 0 0 0 0 0 0 127 0" result="hardAlpha"/>
<feMorphology radius="8" operator="erode" in="SourceAlpha" result="effect1_dropShadow_16278_74"/>
<feOffset dy="16"/>
<feGaussianBlur stdDeviation="12"/>
<feColorMatrix type="matrix" values="0 0 0 0 0.290196 0 0 0 0 0.752941 0 0 0 0 1 0 0 0 0.4 0"/>
<feBlend mode="normal" in2="BackgroundImageFix" result="effect1_dropShadow_16278_74"/>
<feBlend mode="normal" in="SourceGraphic" in2="effect1_dropShadow_16278_74" result="shape"/>
</filter>
</defs>
</svg>
