<svg width="96" height="96" viewBox="0 0 96 96" fill="none" xmlns="http://www.w3.org/2000/svg">
<g filter="url(#filter0_d_16278_224)">
<rect x="16" width="64" height="64" rx="16" fill="#5FBF24"/>
<g clip-path="url(#clip0_16278_224)">
<path d="M46.2352 26.9054C46.3161 26.9435 46.4036 26.9622 46.4906 26.9622C46.5745 26.9622 46.6578 26.9453 46.7357 26.9102C46.8915 26.8408 50.5528 25.1895 51.4669 22.8064C51.9161 21.6357 52.0109 20.4028 51.7331 19.3317C51.4367 18.1881 50.7556 17.3598 49.8156 16.9993C48.7638 16.5954 47.5514 16.855 46.5014 17.6876C45.7666 17.2946 44.2977 16.6286 43.3346 16.9993C42.3946 17.3604 41.7135 18.1887 41.4171 19.3317C41.1399 20.4022 41.2341 21.6357 41.6839 22.8064C42.5968 25.1829 46.0872 26.8354 46.2352 26.9054ZM42.5872 19.6348C42.7834 18.8795 43.203 18.3433 43.7682 18.1266C43.8291 18.103 43.9052 18.0921 43.9922 18.0921C44.5585 18.0921 45.6115 18.5468 46.2636 18.9398C46.4966 19.0793 46.7949 19.0485 46.9917 18.8601C47.7669 18.1229 48.6611 17.8476 49.3832 18.1259C49.949 18.3427 50.3686 18.8789 50.5642 19.6342C50.7792 20.4632 50.6995 21.4352 50.339 22.3729C49.7781 23.8346 47.5743 25.1593 46.4984 25.6864C45.7346 25.2885 43.4264 23.9765 42.8112 22.3729C42.4519 21.4358 42.3722 20.4638 42.5872 19.6348Z" fill="white"/>
<path d="M53.7358 26.6597C48.0761 26.6597 43.4717 31.264 43.4717 36.9238C43.4717 38.9265 44.0489 40.8671 45.1411 42.5371C45.3235 42.816 45.6972 42.8939 45.9767 42.7116C46.2557 42.5286 46.3342 42.1549 46.1518 41.8754C45.1882 40.4034 44.6792 38.6911 44.6792 36.9238C44.6792 31.93 48.742 27.8672 53.7358 27.8672C58.7296 27.8672 62.7924 31.93 62.7924 36.9238C62.7924 41.9176 58.7296 45.9804 53.7358 45.9804C52.1262 45.9804 50.5455 45.5529 49.1653 44.7439C48.8773 44.576 48.5084 44.672 48.3393 44.9594C48.1708 45.2474 48.2675 45.6176 48.5549 45.786C50.1204 46.7031 51.9118 47.1874 53.7358 47.1874C59.3956 47.1874 64 42.583 64 36.9232C64 31.2634 59.3956 26.6597 53.7358 26.6597Z" fill="white"/>
<path d="M48.7843 31.5297C48.5814 31.2652 48.2017 31.2151 47.9378 31.4186C47.6734 31.6215 47.6239 32.0006 47.8267 32.2651C48.9274 33.6984 49.5094 35.4138 49.5094 37.2257C49.5094 41.7202 45.853 45.3766 41.3585 45.3766C36.864 45.3766 33.2076 41.7208 33.2076 37.2257C33.2076 32.7306 36.864 29.0747 41.3585 29.0747C42.4634 29.0747 43.5345 29.2915 44.5428 29.7196C44.8507 29.8518 45.2045 29.7069 45.335 29.4002C45.4654 29.0935 45.3223 28.739 45.0156 28.6092C43.8575 28.1171 42.627 27.8672 41.3591 27.8672C36.1986 27.8672 32.0006 32.0652 32.0006 37.2257C32.0006 42.3861 36.1986 46.5842 41.3591 46.5842C46.5196 46.5842 50.717 42.3861 50.717 37.2263C50.717 35.1451 50.0486 33.1756 48.7843 31.5297Z" fill="white"/>
</g>
<rect x="17" y="1" width="62" height="62" rx="15" stroke="#5FBF24" stroke-width="2"/>
</g>
<defs>
<filter id="filter0_d_16278_224" x="0" y="0" width="96" height="96" filterUnits="userSpaceOnUse" color-interpolation-filters="sRGB">
<feFlood flood-opacity="0" result="BackgroundImageFix"/>
<feColorMatrix in="SourceAlpha" type="matrix" values="0 0 0 0 0 0 0 0 0 0 0 0 0 0 0 0 0 0 127 0" result="hardAlpha"/>
<feMorphology radius="8" operator="erode" in="SourceAlpha" result="effect1_dropShadow_16278_224"/>
<feOffset dy="16"/>
<feGaussianBlur stdDeviation="12"/>
<feColorMatrix type="matrix" values="0 0 0 0 0.372549 0 0 0 0 0.74902 0 0 0 0 0.141176 0 0 0 0.4 0"/>
<feBlend mode="normal" in2="BackgroundImageFix" result="effect1_dropShadow_16278_224"/>
<feBlend mode="normal" in="SourceGraphic" in2="effect1_dropShadow_16278_224" result="shape"/>
</filter>
<clipPath id="clip0_16278_224">
<rect width="32" height="32" fill="white" transform="translate(32 16)"/>
</clipPath>
</defs>
</svg>
