<svg width="96" height="96" viewBox="0 0 96 96" fill="none" xmlns="http://www.w3.org/2000/svg">
<g filter="url(#filter0_d_16278_107)">
<rect x="16" width="64" height="64" rx="16" fill="#FF944A"/>
<path d="M55.8277 35.5051C55.2384 34.8379 54.3797 34.4358 53.4688 34.4358C51.7344 34.4358 50.3237 35.847 50.3237 37.5814C50.3237 42.1777 55.4288 44.0779 55.6464 44.1569C55.7045 44.1782 55.7664 44.1889 55.8277 44.1889C55.8891 44.1889 55.9504 44.1782 56.0091 44.1569C56.2267 44.0785 61.3317 42.1777 61.3317 37.5814C61.3317 35.847 59.9205 34.4358 58.1861 34.4358C57.2757 34.4358 56.4176 34.8379 55.8277 35.5051ZM56.3099 36.6923C56.6533 35.9697 57.3893 35.5025 58.1867 35.5025C59.3328 35.5025 60.2656 36.4353 60.2656 37.5814C60.2656 40.9819 56.6843 42.7147 55.8283 43.0801C54.9723 42.7147 51.3909 40.9825 51.3909 37.5814C51.3909 36.4353 52.3232 35.5025 53.4693 35.5025C54.2661 35.5025 55.0032 35.9691 55.3467 36.6923C55.4352 36.8785 55.6229 36.9969 55.8283 36.9969C56.0336 36.9969 56.2213 36.8779 56.3099 36.6923Z" fill="white"/>
<path d="M39.9723 40.6271C40.0709 40.8191 42.4517 45.3167 48.8107 45.3167C50.1952 45.3247 51.4272 45.058 52.4709 44.5236C52.7328 44.3892 52.8368 44.0682 52.7024 43.8058C52.5685 43.5434 52.2475 43.4394 51.9845 43.5738C51.0944 44.0292 50.0208 44.2399 48.8139 44.25C43.1253 44.25 41.008 40.3071 40.9259 40.1498C39.1989 36.6138 36.8597 33.5791 35.9344 32.4383C35.6496 32.0879 35.6699 31.5711 35.9808 31.2372C36.2235 30.977 36.5936 30.8762 36.9243 30.9812C39.2688 31.7231 41.1445 34.634 41.1632 34.6634C41.2901 34.8634 41.536 34.9551 41.7621 34.889C41.9899 34.8223 42.1467 34.6138 42.1467 34.377V24.217C42.1467 23.4794 42.7467 22.8788 43.4843 22.8788C44.2219 22.8788 44.8219 23.4788 44.8219 24.217V31.8074C44.8219 32.1018 45.0603 32.3407 45.3552 32.3407C45.6501 32.3407 45.8885 32.1018 45.8885 31.8074V20.9764C45.8885 20.3002 46.4389 19.7498 47.1157 19.7498C47.7925 19.7498 48.3429 20.3002 48.3429 20.9764V31.8074C48.3429 32.1018 48.5813 32.3407 48.8763 32.3407C49.1712 32.3407 49.4096 32.1018 49.4096 31.8074V23.3567C49.4096 22.6372 49.9947 22.0522 50.7136 22.0522C51.4325 22.0522 52.0181 22.6372 52.0181 23.3567V31.8074C52.0181 32.1018 52.2565 32.3407 52.5515 32.3407C52.8464 32.3407 53.0848 32.1018 53.0848 31.8074V26.2282C53.0848 25.6186 53.5808 25.1226 54.1899 25.1226C54.7989 25.1226 55.2949 25.6186 55.2949 26.2282V33.4724C55.2949 33.7668 55.5333 34.0058 55.8283 34.0058C56.1232 34.0058 56.3616 33.7668 56.3616 33.4724V26.2282C56.3616 25.0303 55.3872 24.0559 54.1899 24.0559C53.7867 24.0559 53.4085 24.1663 53.0848 24.3588V23.3567C53.0848 22.049 52.0213 20.9855 50.7136 20.9855C50.2325 20.9855 49.784 21.13 49.4096 21.3775V20.9764C49.4096 19.7119 48.3803 18.6831 47.1157 18.6831C45.8512 18.6831 44.8219 19.7119 44.8219 20.9764V22.2196C44.4389 21.9626 43.9792 21.8122 43.4843 21.8122C42.1589 21.8122 41.08 22.8906 41.08 24.217V32.7876C40.2187 31.7786 38.8549 30.4724 37.2459 29.9631C36.5243 29.7348 35.7227 29.9498 35.2011 30.5092C34.5285 31.2314 34.4885 32.3492 35.1067 33.1098C36.0085 34.2218 38.2891 37.1802 39.9723 40.6271Z" fill="white"/>
<rect x="17" y="1" width="62" height="62" rx="15" stroke="#FF944A" stroke-width="2"/>
</g>
<defs>
<filter id="filter0_d_16278_107" x="0" y="0" width="96" height="96" filterUnits="userSpaceOnUse" color-interpolation-filters="sRGB">
<feFlood flood-opacity="0" result="BackgroundImageFix"/>
<feColorMatrix in="SourceAlpha" type="matrix" values="0 0 0 0 0 0 0 0 0 0 0 0 0 0 0 0 0 0 127 0" result="hardAlpha"/>
<feMorphology radius="8" operator="erode" in="SourceAlpha" result="effect1_dropShadow_16278_107"/>
<feOffset dy="16"/>
<feGaussianBlur stdDeviation="12"/>
<feColorMatrix type="matrix" values="0 0 0 0 1 0 0 0 0 0.580392 0 0 0 0 0.290196 0 0 0 0.4 0"/>
<feBlend mode="normal" in2="BackgroundImageFix" result="effect1_dropShadow_16278_107"/>
<feBlend mode="normal" in="SourceGraphic" in2="effect1_dropShadow_16278_107" result="shape"/>
</filter>
</defs>
</svg>
