<svg width="96" height="96" viewBox="0 0 96 96" fill="none" xmlns="http://www.w3.org/2000/svg">
<g filter="url(#filter0_d_16278_130)">
<rect x="16" width="64" height="64" rx="16" fill="#1678FB"/>
<g clip-path="url(#clip0_16278_130)">
<path d="M60.6667 45.3334H35.3333C33.4667 45.3334 32 43.8667 32 42.0001V26.0001C32 24.1334 33.4667 22.6667 35.3333 22.6667H60.6667C62.5333 22.6667 64 24.1334 64 26.0001V42.0001C64 43.8667 62.5333 45.3334 60.6667 45.3334ZM35.3333 24.0001C34.2667 24.0001 33.3333 24.9334 33.3333 26.0001V42.0001C33.3333 43.0667 34.2667 44.0001 35.3333 44.0001H60.6667C61.7333 44.0001 62.6667 43.0667 62.6667 42.0001V26.0001C62.6667 24.9334 61.7333 24.0001 60.6667 24.0001H35.3333Z" fill="white"/>
<path d="M52.6667 24.0001C52.2667 24.0001 52 23.7334 52 23.3334V20.6667C52 20.2667 51.7333 20.0001 51.3333 20.0001H44.6667C44.2667 20.0001 44 20.2667 44 20.6667V23.3334C44 23.7334 43.7333 24.0001 43.3333 24.0001C42.9333 24.0001 42.6667 23.7334 42.6667 23.3334V20.6667C42.6667 19.6001 43.6 18.6667 44.6667 18.6667H51.3333C52.4 18.6667 53.3333 19.6001 53.3333 20.6667V23.3334C53.3333 23.7334 53.0667 24.0001 52.6667 24.0001Z" fill="white"/>
<path d="M48 34.6666C47.8667 34.6666 47.8667 34.6666 47.7333 34.6666L32.4 29.3333C32.1333 29.2 31.8667 28.8 32 28.4C32.1333 28.1333 32.5333 27.8666 32.9333 28L48 33.3333L63.0667 28C63.4667 27.8666 63.7333 28 63.8667 28.4C64 28.8 63.8667 29.0666 63.4667 29.2L48.1333 34.5333C48.1333 34.6666 48.1333 34.6666 48 34.6666Z" fill="white"/>
</g>
<rect x="17" y="1" width="62" height="62" rx="15" stroke="#1678FB" stroke-width="2"/>
</g>
<defs>
<filter id="filter0_d_16278_130" x="0" y="0" width="96" height="96" filterUnits="userSpaceOnUse" color-interpolation-filters="sRGB">
<feFlood flood-opacity="0" result="BackgroundImageFix"/>
<feColorMatrix in="SourceAlpha" type="matrix" values="0 0 0 0 0 0 0 0 0 0 0 0 0 0 0 0 0 0 127 0" result="hardAlpha"/>
<feMorphology radius="8" operator="erode" in="SourceAlpha" result="effect1_dropShadow_16278_130"/>
<feOffset dy="16"/>
<feGaussianBlur stdDeviation="12"/>
<feColorMatrix type="matrix" values="0 0 0 0 0.0862745 0 0 0 0 0.470588 0 0 0 0 0.984314 0 0 0 0.4 0"/>
<feBlend mode="normal" in2="BackgroundImageFix" result="effect1_dropShadow_16278_130"/>
<feBlend mode="normal" in="SourceGraphic" in2="effect1_dropShadow_16278_130" result="shape"/>
</filter>
<clipPath id="clip0_16278_130">
<rect width="32" height="32" fill="white" transform="translate(32 16)"/>
</clipPath>
</defs>
</svg>
