<svg width="96" height="96" viewBox="0 0 96 96" fill="none" xmlns="http://www.w3.org/2000/svg">
<g filter="url(#filter0_d_16278_19)">
<rect x="16" width="64" height="64" rx="16" fill="#FF6A99"/>
<path d="M55.5095 27.9424C55.4622 27.8192 55.3702 27.7185 55.2517 27.6605L48.2227 24.4596C48.1576 24.4299 48.0869 24.4146 48.0154 24.4146C47.9439 24.4146 47.8732 24.4299 47.8081 24.4596L40.7788 27.6605C40.6934 27.7027 40.621 27.7674 40.5695 27.8475C40.5179 27.9277 40.4891 28.0203 40.4861 28.1156V36.888C40.4861 36.9903 40.5175 37.0901 40.576 37.174C40.6345 37.2579 40.7173 37.3219 40.8132 37.3573L47.8425 39.9474C47.9545 39.9861 48.0763 39.9861 48.1882 39.9474L55.2173 37.3573C55.3132 37.3219 55.3961 37.2579 55.4545 37.174C55.513 37.0901 55.5444 36.9903 55.5444 36.888C55.5444 36.888 55.5311 27.997 55.5095 27.9424ZM48.0154 25.464L53.8237 28.1092L48.0154 30.6803L42.2068 28.1092L48.0154 25.464ZM41.4861 36.5394V28.8838L47.5154 31.5527V38.7611L41.4861 36.5394ZM48.5154 38.761V31.5527L54.5444 28.8838V36.5394L48.5154 38.761Z" fill="white"/>
<path d="M59.4848 36.125V26.916C59.4842 26.5087 59.3767 26.1087 59.173 25.756C58.9694 25.4033 58.6768 25.1102 58.3244 24.906L50.4092 20.3346C50.5158 19.9891 50.5466 19.6246 50.4993 19.2661C50.452 18.9076 50.3278 18.5635 50.1353 18.2574C49.9427 17.9514 49.6864 17.6905 49.3837 17.4926C49.081 17.2948 48.7391 17.1647 48.3815 17.1111C48.0239 17.0576 47.6589 17.082 47.3116 17.1826C46.9642 17.2831 46.6427 17.4575 46.369 17.6938C46.0953 17.9302 45.8759 18.2228 45.7257 18.5518C45.5756 18.8807 45.4982 19.2382 45.499 19.5998C45.5025 19.8495 45.5437 20.0972 45.6212 20.3346L37.7058 24.906C37.3536 25.1103 37.0611 25.4035 36.8575 25.7562C36.654 26.1089 36.5465 26.5088 36.5459 26.916V36.0794C36.15 36.1518 35.7773 36.3182 35.4591 36.5646C35.1409 36.8111 34.8866 37.1303 34.7175 37.4955C34.5483 37.8606 34.4694 38.2611 34.4872 38.6631C34.5051 39.0652 34.6192 39.4571 34.82 39.8058C35.0208 40.1546 35.3025 40.45 35.6412 40.6673C35.98 40.8845 36.366 41.0173 36.7667 41.0543C37.1674 41.0913 37.5712 41.0316 37.944 40.8801C38.3169 40.7286 38.6479 40.4898 38.9092 40.1838L46.8542 44.7722C47.2074 44.9755 47.6077 45.0826 48.0151 45.0826C48.4226 45.0826 48.8229 44.9755 49.176 44.7722L57.0035 40.251C57.2674 40.5383 57.5947 40.7601 57.9593 40.8988C58.3239 41.0375 58.7159 41.0893 59.104 41.05C59.4922 41.0108 59.8658 40.8815 60.1953 40.6726C60.5248 40.4637 60.801 40.1809 61.0021 39.8466C61.2031 39.5123 61.3235 39.1357 61.3536 38.7467C61.3836 38.3578 61.3226 37.9671 61.1753 37.6059C61.0281 37.2446 60.7986 36.9227 60.5051 36.6656C60.2117 36.4085 59.8624 36.2234 59.4849 36.125L59.4848 36.125ZM48.0154 18.0835C48.4145 18.088 48.7958 18.2498 49.0765 18.5337C49.3572 18.8175 49.5146 19.2006 49.5146 19.5999C49.5146 19.9991 49.3572 20.3822 49.0765 20.666C48.7958 20.9499 48.4145 21.1117 48.0153 21.1162C47.6161 21.1117 47.2348 20.9499 46.9542 20.666C46.6735 20.3821 46.5161 19.999 46.5161 19.5998C46.5161 19.2006 46.6735 18.8175 46.9542 18.5336C47.2349 18.2497 47.6162 18.088 48.0154 18.0835ZM37.0127 40.0649C36.6134 40.0605 36.232 39.8988 35.9512 39.6149C35.6705 39.331 35.513 38.9478 35.513 38.5485C35.513 38.1493 35.6705 37.7661 35.9513 37.4822C36.232 37.1983 36.6135 37.0366 37.0127 37.0322C37.412 37.0366 37.7934 37.1983 38.0742 37.4822C38.3549 37.7661 38.5124 38.1493 38.5124 38.5486C38.5124 38.9479 38.3549 39.331 38.0741 39.6149C37.7933 39.8988 37.4119 40.0605 37.0127 40.0649ZM48.676 43.9065C48.475 44.0221 48.2471 44.083 48.0152 44.083C47.7833 44.083 47.5555 44.0221 47.3545 43.9065L39.3978 39.3115C39.4811 39.0656 39.5253 38.8082 39.5288 38.5486C39.5278 37.9744 39.3307 37.4178 38.97 36.9709C38.6094 36.5241 38.1069 36.2139 37.5459 36.0917V26.916C37.5462 26.6842 37.6074 26.4565 37.7232 26.2557C37.8391 26.0549 38.0055 25.888 38.206 25.7717L46.1001 21.2126C46.3329 21.4951 46.6253 21.7227 46.9564 21.8789C47.2876 22.0352 47.6492 22.1162 48.0153 22.1162C48.3814 22.1162 48.743 22.0352 49.0741 21.879C49.4052 21.7227 49.6977 21.4952 49.9305 21.2126L57.8242 25.7717C58.0248 25.888 58.1913 26.0549 58.3073 26.2557C58.4232 26.4564 58.4844 26.6841 58.4848 26.916V36.0686C57.8875 36.1541 57.3409 36.4517 56.9449 36.9071C56.5489 37.3625 56.3301 37.9451 56.3283 38.5486C56.3311 38.8379 56.3842 39.1246 56.4855 39.3957L48.676 43.9065ZM58.8447 40.0649C58.4454 40.0605 58.064 39.8988 57.7833 39.6149C57.5025 39.331 57.345 38.9478 57.345 38.5485C57.345 38.1493 57.5025 37.7661 57.7833 37.4822C58.0641 37.1983 58.4455 37.0366 58.8448 37.0322C59.244 37.0367 59.6253 37.1984 59.906 37.4823C60.1868 37.7662 60.3442 38.1493 60.3442 38.5486C60.3442 38.9478 60.1867 39.331 59.906 39.6149C59.6253 39.8987 59.2439 40.0605 58.8447 40.0649V40.0649Z" fill="white"/>
<rect x="17" y="1" width="62" height="62" rx="15" stroke="#FF6A99" stroke-width="2"/>
</g>
<defs>
<filter id="filter0_d_16278_19" x="0" y="0" width="96" height="96" filterUnits="userSpaceOnUse" color-interpolation-filters="sRGB">
<feFlood flood-opacity="0" result="BackgroundImageFix"/>
<feColorMatrix in="SourceAlpha" type="matrix" values="0 0 0 0 0 0 0 0 0 0 0 0 0 0 0 0 0 0 127 0" result="hardAlpha"/>
<feMorphology radius="8" operator="erode" in="SourceAlpha" result="effect1_dropShadow_16278_19"/>
<feOffset dy="16"/>
<feGaussianBlur stdDeviation="12"/>
<feColorMatrix type="matrix" values="0 0 0 0 1 0 0 0 0 0.415686 0 0 0 0 0.6 0 0 0 0.4 0"/>
<feBlend mode="normal" in2="BackgroundImageFix" result="effect1_dropShadow_16278_19"/>
<feBlend mode="normal" in="SourceGraphic" in2="effect1_dropShadow_16278_19" result="shape"/>
</filter>
</defs>
</svg>
