<svg width="96" height="96" viewBox="0 0 96 96" fill="none" xmlns="http://www.w3.org/2000/svg">
<g filter="url(#filter0_d_16278_144)">
<rect x="16" width="64" height="64" rx="16" fill="#9B6BF3"/>
<path d="M59.438 29.513C59.207 29.513 58.998 29.35 58.949 29.114C58.771 28.249 58.143 27.537 57.31 27.255L55.019 26.475C54.409 26.266 54 25.693 54 25.05V23.5C54 23.224 54.224 23 54.5 23C54.776 23 55 23.224 55 23.5V25.05C55 25.269 55.134 25.456 55.341 25.527L57.631 26.307C58.799 26.703 59.679 27.701 59.928 28.912C59.984 29.183 59.81 29.447 59.539 29.502C59.505 29.51 59.472 29.513 59.438 29.513Z" fill="white"/>
<path d="M47.244 28.162C47.127 28.162 47.009 28.121 46.914 28.038C46.707 27.855 46.686 27.54 46.868 27.332C47.27 26.874 47.789 26.526 48.367 26.327L50.657 25.537C50.863 25.467 51 25.279 51 25.07V23.5C51 23.224 51.224 23 51.5 23C51.776 23 52 23.224 52 23.5V25.07C52 25.708 51.591 26.275 50.981 26.483L48.693 27.272C48.279 27.415 47.908 27.664 47.62 27.992C47.521 28.104 47.383 28.162 47.244 28.162Z" fill="white"/>
<path d="M51.495 23.996C51.39 23.996 51.284 23.963 51.194 23.895C50.436 23.323 50 22.45 50 21.5V19.5C50 18.121 51.121 17 52.5 17H53.5C54.879 17 56 18.121 56 19.5V21.5C56 21.776 55.776 22 55.5 22C55.224 22 55 21.776 55 21.5V19.5C55 18.673 54.327 18 53.5 18H52.5C51.673 18 51 18.673 51 19.5V21.5C51 22.133 51.29 22.715 51.796 23.097C52.017 23.264 52.061 23.577 51.895 23.797C51.796 23.928 51.646 23.996 51.495 23.996Z" fill="white"/>
<path d="M53.503 24.449C53.271 24.449 53.063 24.286 53.014 24.049C52.959 23.778 53.134 23.515 53.405 23.459C54.329 23.271 55 22.446 55 21.5C55 21.224 55.224 21 55.5 21C55.776 21 56 21.224 56 21.5C56 22.92 54.992 24.155 53.604 24.439C53.57 24.446 53.536 24.449 53.503 24.449Z" fill="white"/>
<path d="M38 29C37.96 29 37.919 28.995 37.878 28.984C37.61 28.917 37.447 28.645 37.516 28.378L37.776 27.348C38.254 25.425 38.542 23.43 38.631 21.418L38.63 21.25C38.713 19.418 40.193 18 42 18C42.882 18 43.709 18.335 44.33 18.942C44.957 19.534 45.325 20.348 45.36 21.23L45.369 21.415C45.445 23.131 45.667 24.841 46.028 26.503C46.087 26.773 45.916 27.039 45.646 27.098C45.375 27.16 45.11 26.986 45.051 26.716C44.677 24.998 44.448 23.232 44.369 21.463L44.36 21.275C44.335 20.651 44.078 20.081 43.636 19.663C43.198 19.233 42.619 19 42 19C40.729 19 39.688 19.998 39.629 21.272L39.63 21.44C39.537 23.54 39.24 25.602 38.745 27.59L38.484 28.621C38.428 28.849 38.224 29 38 29Z" fill="white"/>
<path d="M37.117 29.998C37.025 29.998 36.933 29.974 36.85 29.921C36.617 29.775 36.546 29.465 36.694 29.232C37.18 28.46 37.882 27.86 38.721 27.5L39.692 27.082C39.879 27 40 26.816 40 26.613C40 26.337 40.224 26.113 40.5 26.113C40.776 26.113 41 26.337 41 26.613C41 27.217 40.642 27.76 40.087 27.999L39.116 28.417C38.464 28.698 37.919 29.164 37.54 29.765C37.445 29.915 37.283 29.998 37.117 29.998Z" fill="white"/>
<path d="M42 26.0001C41.345 26.0001 40.722 25.7921 40.198 25.3981C39.976 25.2331 39.932 24.9191 40.098 24.6991C40.264 24.4791 40.577 24.4321 40.797 24.5991C41.147 24.8611 41.563 25.0001 42 25.0001C43.103 25.0001 44 24.1031 44 23.0001V22.3511C42.937 22.3901 41.961 22.0441 41.187 21.4201C40.972 21.2461 40.938 20.9321 41.11 20.7171C41.283 20.5011 41.6 20.4691 41.813 20.6411C42.159 20.9201 42.894 21.3781 44 21.3801H44.004C44.278 21.3801 44.532 21.4831 44.72 21.6691C44.9 21.8491 45 22.0911 45 22.3511V23.0001C45 24.6541 43.654 26.0001 42 26.0001Z" fill="white"/>
<path d="M53.167 37.3479C53.035 37.3479 52.904 37.296 52.806 37.194C52.59 36.968 52.336 36.787 52.05 36.655L51.12 36.225C50.58 35.96 50.25 35.44 50.25 34.861V34.2C50.25 33.924 50.474 33.7 50.75 33.7C51.026 33.7 51.25 33.924 51.25 34.2V34.86C51.25 35.054 51.365 35.2299 51.55 35.3209L52.47 35.746C52.869 35.931 53.226 36.185 53.529 36.502C53.719 36.702 53.713 37.0189 53.513 37.209C53.416 37.3019 53.291 37.3479 53.167 37.3479Z" fill="white"/>
<path d="M45.032 38.9869C45.008 38.9869 44.983 38.985 44.959 38.982C44.686 38.942 44.497 38.688 44.536 38.415C44.707 37.242 45.452 36.244 46.53 35.746L47.46 35.316C47.635 35.23 47.75 35.054 47.75 34.86V34.2C47.75 33.924 47.974 33.7 48.25 33.7C48.526 33.7 48.75 33.924 48.75 34.2V34.86C48.75 35.439 48.42 35.9599 47.89 36.219L46.951 36.6539C46.181 37.0089 45.648 37.721 45.527 38.5589C45.49 38.8089 45.276 38.9869 45.032 38.9869Z" fill="white"/>
<path d="M49.751 34.984C49.503 34.984 49.288 34.799 49.256 34.547C49.221 34.273 49.415 34.023 49.689 33.987C50.437 33.894 51 33.253 51 32.5V31.5C51 31.097 50.844 30.724 50.562 30.448C50.276 30.156 49.903 30 49.5 30C48.673 30 48 30.673 48 31.5V32.5C48 32.903 48.156 33.276 48.438 33.552C48.487 33.602 48.531 33.642 48.577 33.679C48.79 33.854 48.821 34.169 48.646 34.383C48.471 34.596 48.158 34.627 47.942 34.452C47.869 34.391 47.799 34.328 47.733 34.261C47.263 33.803 47 33.175 47 32.5V31.5C47 30.121 48.121 29 49.5 29C50.175 29 50.803 29.263 51.269 29.741C51.737 30.197 52 30.825 52 31.5V32.5C52 33.756 51.061 34.822 49.815 34.98C49.794 34.983 49.772 34.984 49.751 34.984Z" fill="white"/>
<path d="M46.518 29.503C46.378 29.503 46.24 29.444 46.141 29.331C45.794 28.933 45.373 28.625 44.89 28.416L43.902 27.989C43.354 27.753 43 27.215 43 26.617V25C43 24.724 43.224 24.5 43.5 24.5C43.776 24.5 44 24.724 44 25V26.617C44 26.814 44.117 26.993 44.298 27.071L45.286 27.498C45.908 27.767 46.449 28.163 46.894 28.675C47.076 28.883 47.053 29.199 46.845 29.38C46.751 29.463 46.634 29.503 46.518 29.503Z" fill="white"/>
<path d="M40.5 47.0001C40.224 47.0001 40 46.7761 40 46.5001V45.7051L36.629 43.0631C36.207 42.7271 35.642 42.0681 35.421 41.5431L33.041 36.0101C33.014 35.9481 33 35.8821 33 35.8131V30.9941C33 30.3721 33.705 29.9141 34.386 29.8301C35.232 29.7181 36.291 30.1811 36.691 31.7771C36.897 32.6061 36.943 33.3071 36.984 33.9251C37.003 34.2001 36.795 34.4591 36.519 34.4781C36.243 34.4721 36.006 34.3071 35.989 34.0331C35.948 33.4151 35.905 32.7621 35.72 32.0191C35.594 31.5161 35.324 30.9001 34.747 30.8231C34.363 30.7681 34.038 30.9751 33.985 31.0691L34 35.7101L36.341 41.1531C36.487 41.5011 36.941 42.0331 37.249 42.2781L40.809 45.0681C40.93 45.1631 41 45.3091 41 45.4621V46.5001C41 46.7761 40.776 47.0001 40.5 47.0001Z" fill="white"/>
<path d="M46.5 47.0002C46.224 47.0002 46 46.7762 46 46.5002V44.0372C46 41.9302 44.545 40.0932 42.461 39.5692C42.193 39.5022 42.031 39.2292 42.098 38.9622C42.165 38.6942 42.435 38.5342 42.705 38.5992C45.233 39.2352 47 41.4712 47 44.0372V46.5002C47 46.7762 46.776 47.0002 46.5 47.0002Z" fill="white"/>
<path d="M40.762 41.4171C40.634 41.4171 40.506 41.3681 40.408 41.2711L36.021 36.8911C35.927 36.7971 35.875 36.6701 35.875 36.5371C35.875 36.4041 35.928 36.2771 36.021 36.1831C36.196 36.0081 36.728 35.4761 37.553 35.2961C38.268 35.1401 39.39 35.2231 40.67 36.5031L42.925 38.7531C43.12 38.9471 43.12 39.2641 42.925 39.4601C42.73 39.6551 42.413 39.6551 42.218 39.4601L39.963 37.2101C38.938 36.1861 37.979 35.9681 37.112 36.5661L41.114 40.5621C41.309 40.7561 41.309 41.0741 41.114 41.2691C41.018 41.3681 40.89 41.4171 40.762 41.4171Z" fill="white"/>
<path d="M55.5 47.0001C55.224 47.0001 55 46.7761 55 46.5001V45.4621C55 45.3091 55.07 45.1631 55.191 45.0681L58.754 42.2761C59.06 42.0331 59.513 41.5011 59.657 41.1571L62 35.7111V30.9941C61.962 30.9751 61.632 30.7701 61.253 30.8231C60.677 30.9001 60.406 31.5161 60.28 32.0191C60.095 32.7611 60.052 33.4151 60.014 33.9911L59.513 34.0001L59.014 33.9671C59.058 33.3081 59.104 32.6071 59.31 31.7781C59.709 30.1811 60.767 29.7201 61.615 29.8311C62.295 29.9141 63 30.3721 63 30.9941V35.8131C63 35.8811 62.986 35.9481 62.959 36.0101L60.577 41.5471C60.358 42.0681 59.793 42.7271 59.374 43.0611L56 45.7051V46.5001C56 46.7761 55.776 47.0001 55.5 47.0001Z" fill="white"/>
<path d="M49.5 47C49.224 47 49 46.776 49 46.5V44.037C49 41.471 50.767 39.235 53.295 38.599C53.566 38.535 53.834 38.695 53.902 38.962C53.968 39.23 53.806 39.502 53.539 39.569C51.455 40.093 50 41.93 50 44.037V46.5C50 46.776 49.776 47 49.5 47Z" fill="white"/>
<path d="M55.238 41.4172C55.11 41.4172 54.982 41.3682 54.884 41.2712C54.689 41.0762 54.689 40.7582 54.884 40.5642L58.886 36.5682C58.02 35.9702 57.061 36.1872 56.035 37.2122L53.78 39.4622C53.585 39.6572 53.268 39.6572 53.073 39.4622C52.878 39.2662 52.878 38.9492 53.073 38.7552L55.328 36.5052C56.608 35.2252 57.731 35.1432 58.445 35.2982C59.27 35.4782 59.802 36.0102 59.977 36.1852C60.071 36.2792 60.123 36.4062 60.123 36.5392C60.123 36.6722 60.07 36.7992 59.977 36.8932L55.59 41.2732C55.494 41.3682 55.366 41.4172 55.238 41.4172Z" fill="white"/>
<path d="M55.238 41.4172C55.11 41.4172 54.982 41.3682 54.884 41.2712C54.689 41.0762 54.689 40.7582 54.884 40.5642L58.886 36.5682C58.02 35.9702 57.061 36.1872 56.035 37.2122L53.78 39.4622C53.585 39.6572 53.268 39.6572 53.073 39.4622C52.878 39.2662 52.878 38.9492 53.073 38.7552L55.328 36.5052C56.608 35.2252 57.731 35.1432 58.445 35.2982C59.27 35.4782 59.802 36.0102 59.977 36.1852C60.071 36.2792 60.123 36.4062 60.123 36.5392C60.123 36.6722 60.07 36.7992 59.977 36.8932L55.59 41.2732C55.494 41.3682 55.366 41.4172 55.238 41.4172Z" fill="white"/>
<rect x="17" y="1" width="62" height="62" rx="15" stroke="#9B6BF3" stroke-width="2"/>
</g>
<defs>
<filter id="filter0_d_16278_144" x="0" y="0" width="96" height="96" filterUnits="userSpaceOnUse" color-interpolation-filters="sRGB">
<feFlood flood-opacity="0" result="BackgroundImageFix"/>
<feColorMatrix in="SourceAlpha" type="matrix" values="0 0 0 0 0 0 0 0 0 0 0 0 0 0 0 0 0 0 127 0" result="hardAlpha"/>
<feMorphology radius="8" operator="erode" in="SourceAlpha" result="effect1_dropShadow_16278_144"/>
<feOffset dy="16"/>
<feGaussianBlur stdDeviation="12"/>
<feColorMatrix type="matrix" values="0 0 0 0 0.607843 0 0 0 0 0.419608 0 0 0 0 0.952941 0 0 0 0.4 0"/>
<feBlend mode="normal" in2="BackgroundImageFix" result="effect1_dropShadow_16278_144"/>
<feBlend mode="normal" in="SourceGraphic" in2="effect1_dropShadow_16278_144" result="shape"/>
</filter>
</defs>
</svg>
