<svg width="15" height="16" viewBox="0 0 15 16" fill="none" xmlns="http://www.w3.org/2000/svg">
<path d="M14.0625 7.0625H8.4375V1.4375C8.4375 1.18886 8.33873 0.950403 8.16291 0.774588C7.9871 0.598772 7.74864 0.5 7.5 0.5C7.25136 0.5 7.0129 0.598772 6.83709 0.774588C6.66127 0.950403 6.5625 1.18886 6.5625 1.4375V7.0625H0.9375C0.68886 7.0625 0.450403 7.16127 0.274588 7.33709C0.0987722 7.5129 0 7.75136 0 8C0 8.24864 0.0987722 8.4871 0.274588 8.66291C0.450403 8.83873 0.68886 8.9375 0.9375 8.9375H6.5625V14.5625C6.5625 14.8111 6.66127 15.0496 6.83709 15.2254C7.0129 15.4012 7.25136 15.5 7.5 15.5C7.74864 15.5 7.9871 15.4012 8.16291 15.2254C8.33873 15.0496 8.4375 14.8111 8.4375 14.5625V8.9375H14.0625C14.3111 8.9375 14.5496 8.83873 14.7254 8.66291C14.9012 8.4871 15 8.24864 15 8C15 7.75136 14.9012 7.5129 14.7254 7.33709C14.5496 7.16127 14.3111 7.0625 14.0625 7.0625Z" fill="url(#paint0_linear_158_940)"/>
<defs>
<linearGradient id="paint0_linear_158_940" x1="15" y1="0.5" x2="0" y2="15.5" gradientUnits="userSpaceOnUse">
<stop stop-color="#FFC75F"/>
<stop offset="1" stop-color="#FF6F91"/>
</linearGradient>
</defs>
</svg>
